G04 Layer_Color=128*
%FSLAX25Y25*%
%MOIN*%
G70*
G01*
G75*
%ADD30C,0.00200*%
D30*
X-27047Y55000D02*
X-23110D01*
X-25079Y53031D02*
Y56968D01*
X-36890Y55000D02*
X-32953D01*
X-34921Y53031D02*
Y56968D01*
X-64547Y80000D02*
X-60610D01*
X-62579Y78031D02*
Y81968D01*
X-74390Y80000D02*
X-70453D01*
X-72421Y78031D02*
Y81968D01*
X-62047Y105000D02*
X-58110D01*
X-60079Y103032D02*
Y106968D01*
X-71890Y105000D02*
X-67953D01*
X-69921Y103032D02*
Y106968D01*
X-27047Y105000D02*
X-23110D01*
X-25079Y103032D02*
Y106968D01*
X-36890Y105000D02*
X-32953D01*
X-34921Y103032D02*
Y106968D01*
X-6968Y95000D02*
X-3032D01*
X-5000Y93032D02*
Y96969D01*
X3032Y95000D02*
X6968D01*
X5000Y93032D02*
Y96969D01*
X-6968Y85000D02*
X-3032D01*
X-5000Y83031D02*
Y86968D01*
X3032Y85000D02*
X6968D01*
X5000Y83031D02*
Y86968D01*
X-6968Y75000D02*
X-3032D01*
X-5000Y73032D02*
Y76968D01*
X3032Y75000D02*
X6968D01*
X5000Y73032D02*
Y76968D01*
X-6968Y65000D02*
X-3032D01*
X-5000Y63032D02*
Y66969D01*
X3032Y65000D02*
X6968D01*
X5000Y63032D02*
Y66969D01*
X-6968Y55000D02*
X-3032D01*
X-5000Y53031D02*
Y56968D01*
X3032Y55000D02*
X6968D01*
X5000Y53031D02*
Y56968D01*
X-6968Y45000D02*
X-3032D01*
X-5000Y43031D02*
Y46968D01*
X3032Y45000D02*
X6968D01*
X5000Y43031D02*
Y46968D01*
X-6968Y35000D02*
X-3032D01*
X-5000Y33031D02*
Y36968D01*
X3032Y35000D02*
X6968D01*
X5000Y33031D02*
Y36968D01*
X-6968Y25000D02*
X-3032D01*
X-5000Y23031D02*
Y26969D01*
X3032Y25000D02*
X6968D01*
X5000Y23031D02*
Y26969D01*
X-6968Y15000D02*
X-3032D01*
X-5000Y13032D02*
Y16969D01*
X3032Y15000D02*
X6968D01*
X5000Y13032D02*
Y16969D01*
X-6968Y5000D02*
X-3032D01*
X-5000Y3032D02*
Y6968D01*
X3032Y5000D02*
X6968D01*
X5000Y3032D02*
Y6968D01*
X-6968Y-5000D02*
X-3032D01*
X-5000Y-6968D02*
Y-3032D01*
X3032Y-5000D02*
X6968D01*
X5000Y-6968D02*
Y-3032D01*
X-6968Y-15000D02*
X-3032D01*
X-5000Y-16969D02*
Y-13032D01*
X3032Y-15000D02*
X6968D01*
X5000Y-16969D02*
Y-13032D01*
X-6968Y-25000D02*
X-3032D01*
X-5000Y-26969D02*
Y-23031D01*
X3032Y-25000D02*
X6968D01*
X5000Y-26969D02*
Y-23031D01*
X-6968Y-35000D02*
X-3032D01*
X-5000Y-36968D02*
Y-33031D01*
X3032Y-35000D02*
X6968D01*
X5000Y-36968D02*
Y-33031D01*
X-6968Y-45000D02*
X-3032D01*
X-5000Y-46968D02*
Y-43031D01*
X3032Y-45000D02*
X6968D01*
X5000Y-46968D02*
Y-43031D01*
X-6968Y-55000D02*
X-3032D01*
X-5000Y-56968D02*
Y-53031D01*
X3032Y-55000D02*
X6968D01*
X5000Y-56968D02*
Y-53031D01*
X-6968Y-65000D02*
X-3032D01*
X-5000Y-66969D02*
Y-63032D01*
X3032Y-65000D02*
X6968D01*
X5000Y-66969D02*
Y-63032D01*
X-6968Y-75000D02*
X-3032D01*
X-5000Y-76968D02*
Y-73032D01*
X3032Y-75000D02*
X6968D01*
X5000Y-76968D02*
Y-73032D01*
X-6968Y-85000D02*
X-3032D01*
X-5000Y-86968D02*
Y-83031D01*
X3032Y-85000D02*
X6968D01*
X5000Y-86968D02*
Y-83031D01*
X-6968Y-95000D02*
X-3032D01*
X-5000Y-96969D02*
Y-93032D01*
X3032Y-95000D02*
X6968D01*
X5000Y-96969D02*
Y-93032D01*
X-27047Y80000D02*
X-23110D01*
X-25079Y78031D02*
Y81968D01*
X-36890Y80000D02*
X-32953D01*
X-34921Y78031D02*
Y81968D01*
X-102047Y80000D02*
X-98110D01*
X-100079Y78031D02*
Y81968D01*
X-111890Y80000D02*
X-107953D01*
X-109921Y78031D02*
Y81968D01*
X-64547Y55000D02*
X-60610D01*
X-62579Y53031D02*
Y56968D01*
X-74390Y55000D02*
X-70453D01*
X-72421Y53031D02*
Y56968D01*
X-64547Y30000D02*
X-60610D01*
X-62579Y28032D02*
Y31969D01*
X-74390Y30000D02*
X-70453D01*
X-72421Y28032D02*
Y31969D01*
X-102047Y30000D02*
X-98110D01*
X-100079Y28032D02*
Y31969D01*
X-111890Y30000D02*
X-107953D01*
X-109921Y28032D02*
Y31969D01*
X-102047Y55000D02*
X-98110D01*
X-100079Y53031D02*
Y56968D01*
X-111890Y55000D02*
X-107953D01*
X-109921Y53031D02*
Y56968D01*
X-102047Y5000D02*
X-98110D01*
X-100079Y3032D02*
Y6968D01*
X-111890Y5000D02*
X-107953D01*
X-109921Y3032D02*
Y6968D01*
X-27047Y30000D02*
X-23110D01*
X-25079Y28032D02*
Y31969D01*
X-36890Y30000D02*
X-32953D01*
X-34921Y28032D02*
Y31969D01*
X-27047Y-70000D02*
X-23110D01*
X-25079Y-71969D02*
Y-68032D01*
X-36890Y-70000D02*
X-32953D01*
X-34921Y-71969D02*
Y-68032D01*
X-64547Y-20000D02*
X-60610D01*
X-62579Y-21969D02*
Y-18032D01*
X-74390Y-20000D02*
X-70453D01*
X-72421Y-21969D02*
Y-18032D01*
X-27047Y5000D02*
X-23110D01*
X-25079Y3032D02*
Y6968D01*
X-36890Y5000D02*
X-32953D01*
X-34921Y3032D02*
Y6968D01*
X-102047Y-95000D02*
X-98110D01*
X-100079Y-96969D02*
Y-93032D01*
X-111890Y-95000D02*
X-107953D01*
X-109921Y-96969D02*
Y-93032D01*
X-102047Y-20000D02*
X-98110D01*
X-100079Y-21969D02*
Y-18032D01*
X-111890Y-20000D02*
X-107953D01*
X-109921Y-21969D02*
Y-18032D01*
X-64547Y5000D02*
X-60610D01*
X-62579Y3032D02*
Y6968D01*
X-74390Y5000D02*
X-70453D01*
X-72421Y3032D02*
Y6968D01*
X-64547Y-45000D02*
X-60610D01*
X-62579Y-46968D02*
Y-43031D01*
X-74390Y-45000D02*
X-70453D01*
X-72421Y-46968D02*
Y-43031D01*
X-27047Y-20000D02*
X-23110D01*
X-25079Y-21969D02*
Y-18032D01*
X-36890Y-20000D02*
X-32953D01*
X-34921Y-21969D02*
Y-18032D01*
X-136969Y-94685D02*
X-133031D01*
X-135000Y-96653D02*
Y-92716D01*
X-136969Y-84842D02*
X-133031D01*
X-135000Y-86811D02*
Y-82874D01*
X-136969Y-75000D02*
X-133031D01*
X-135000Y-76968D02*
Y-73032D01*
X-136969Y-55315D02*
X-133031D01*
X-135000Y-57284D02*
Y-53347D01*
X-136969Y-65158D02*
X-133031D01*
X-135000Y-67126D02*
Y-63189D01*
X-64547Y-70000D02*
X-60610D01*
X-62579Y-71969D02*
Y-68032D01*
X-74390Y-70000D02*
X-70453D01*
X-72421Y-71969D02*
Y-68032D01*
X-102047Y-45000D02*
X-98110D01*
X-100079Y-46968D02*
Y-43031D01*
X-111890Y-45000D02*
X-107953D01*
X-109921Y-46968D02*
Y-43031D01*
X-64547Y-95000D02*
X-60610D01*
X-62579Y-96969D02*
Y-93032D01*
X-74390Y-95000D02*
X-70453D01*
X-72421Y-96969D02*
Y-93032D01*
X-27047Y-45000D02*
X-23110D01*
X-25079Y-46968D02*
Y-43031D01*
X-36890Y-45000D02*
X-32953D01*
X-34921Y-46968D02*
Y-43031D01*
X-27047Y-95000D02*
X-23110D01*
X-25079Y-96969D02*
Y-93032D01*
X-36890Y-95000D02*
X-32953D01*
X-34921Y-96969D02*
Y-93032D01*
X-102047Y-70000D02*
X-98110D01*
X-100079Y-71969D02*
Y-68032D01*
X-111890Y-70000D02*
X-107953D01*
X-109921Y-71969D02*
Y-68032D01*
X-5413Y114173D02*
X5413D01*
X0Y108760D02*
Y119587D01*
X-5413Y-114173D02*
X5413D01*
X0Y-119587D02*
Y-108760D01*
X-95965Y-114173D02*
X-85138D01*
X-90551Y-119587D02*
Y-108760D01*
X-95965Y114173D02*
X-85138D01*
X-90551Y108760D02*
Y119587D01*
X-122468Y120500D02*
X-118532D01*
X-120500Y118532D02*
Y122468D01*
X-122468Y110500D02*
X-118532D01*
X-120500Y108531D02*
Y112469D01*
X-122468Y100500D02*
X-118532D01*
X-120500Y98532D02*
Y102469D01*
X-136469Y38815D02*
X-132531D01*
X-134500Y36847D02*
Y40784D01*
X-136469Y48658D02*
X-132531D01*
X-134500Y46689D02*
Y50626D01*
X-136469Y58500D02*
X-132531D01*
X-134500Y56532D02*
Y60469D01*
X-136469Y78185D02*
X-132531D01*
X-134500Y76217D02*
Y80154D01*
X-136469Y68343D02*
X-132531D01*
X-134500Y66374D02*
Y70311D01*
X-198327Y114173D02*
X-187500D01*
X-192913Y108760D02*
Y119587D01*
X-198327Y-114173D02*
X-187500D01*
X-192913Y-119587D02*
Y-108760D01*
X-145468Y120500D02*
X-141532D01*
X-143500Y118532D02*
Y122468D01*
X-145468Y110500D02*
X-141532D01*
X-143500Y108531D02*
Y112469D01*
X-145468Y100500D02*
X-141532D01*
X-143500Y98532D02*
Y102469D01*
X-132264Y-30000D02*
X-127736D01*
X-130000Y-32264D02*
Y-27736D01*
X-132264Y-20000D02*
X-127736D01*
X-130000Y-22264D02*
Y-17736D01*
X-132264Y-10000D02*
X-127736D01*
X-130000Y-12264D02*
Y-7736D01*
X-132264Y0D02*
X-127736D01*
X-130000Y-2264D02*
Y2264D01*
X-132264Y10000D02*
X-127736D01*
X-130000Y7736D02*
Y12264D01*
X-132264Y20000D02*
X-127736D01*
X-130000Y17736D02*
Y22264D01*
X-147264Y-30000D02*
X-142736D01*
X-145000Y-32264D02*
Y-27736D01*
X-147264Y-20000D02*
X-142736D01*
X-145000Y-22264D02*
Y-17736D01*
X-147264Y-10000D02*
X-142736D01*
X-145000Y-12264D02*
Y-7736D01*
X-147264Y0D02*
X-142736D01*
X-145000Y-2264D02*
Y2264D01*
X-147264Y10000D02*
X-142736D01*
X-145000Y7736D02*
Y12264D01*
X-147264Y20000D02*
X-142736D01*
X-145000Y17736D02*
Y22264D01*
M02*
