G04 Layer_Color=65535*
%FSLAX25Y25*%
%MOIN*%
G70*
G01*
G75*
%ADD10C,0.01000*%
%ADD17C,0.00787*%
%ADD18C,0.00700*%
%ADD19R,0.01181X0.01969*%
%ADD20R,0.02461X0.05906*%
%ADD21R,0.01156X0.01969*%
%ADD22R,0.01299X0.03543*%
G36*
X4719Y-105624D02*
X4774D01*
X4834Y-105629D01*
X4903Y-105633D01*
X5047Y-105647D01*
X5199Y-105670D01*
X5352Y-105698D01*
X5421Y-105717D01*
X5490Y-105735D01*
X5495D01*
X5504Y-105740D01*
X5522Y-105749D01*
X5546Y-105758D01*
X5578Y-105767D01*
X5610Y-105786D01*
X5689Y-105823D01*
X5772Y-105869D01*
X5860Y-105929D01*
X5948Y-105998D01*
X6022Y-106081D01*
Y-106086D01*
X6031Y-106091D01*
X6040Y-106105D01*
X6049Y-106123D01*
X6068Y-106146D01*
X6081Y-106174D01*
X6118Y-106243D01*
X6151Y-106326D01*
X6183Y-106423D01*
X6202Y-106539D01*
X6211Y-106664D01*
Y-106668D01*
Y-106673D01*
Y-106687D01*
Y-106705D01*
X6206Y-106756D01*
X6197Y-106816D01*
X6183Y-106885D01*
X6165Y-106959D01*
X6142Y-107038D01*
X6105Y-107112D01*
Y-107116D01*
X6100Y-107121D01*
X6086Y-107144D01*
X6063Y-107181D01*
X6031Y-107227D01*
X5985Y-107278D01*
X5934Y-107334D01*
X5874Y-107384D01*
X5804Y-107435D01*
X5795Y-107440D01*
X5772Y-107458D01*
X5730Y-107477D01*
X5670Y-107509D01*
X5601Y-107537D01*
X5522Y-107574D01*
X5430Y-107606D01*
X5328Y-107634D01*
X5324D01*
X5315Y-107639D01*
X5301Y-107643D01*
X5278Y-107648D01*
X5250Y-107652D01*
X5218Y-107657D01*
X5176Y-107666D01*
X5130Y-107671D01*
X5079Y-107680D01*
X5024Y-107685D01*
X4959Y-107689D01*
X4894Y-107699D01*
X4820Y-107703D01*
X4746D01*
X4663Y-107708D01*
X4483D01*
X4432Y-107703D01*
X4377D01*
X4317Y-107699D01*
X4252Y-107694D01*
X4104Y-107680D01*
X3952Y-107657D01*
X3804Y-107629D01*
X3735Y-107611D01*
X3665Y-107588D01*
X3661D01*
X3651Y-107583D01*
X3633Y-107574D01*
X3610Y-107565D01*
X3577Y-107555D01*
X3545Y-107537D01*
X3467Y-107500D01*
X3384Y-107454D01*
X3291Y-107394D01*
X3208Y-107324D01*
X3129Y-107241D01*
Y-107237D01*
X3120Y-107232D01*
X3111Y-107218D01*
X3102Y-107200D01*
X3088Y-107176D01*
X3069Y-107153D01*
X3037Y-107084D01*
X3005Y-107001D01*
X2972Y-106904D01*
X2954Y-106788D01*
X2945Y-106664D01*
Y-106659D01*
Y-106645D01*
Y-106617D01*
X2949Y-106585D01*
X2954Y-106548D01*
X2963Y-106502D01*
X2972Y-106451D01*
X2986Y-106396D01*
X3005Y-106340D01*
X3023Y-106280D01*
X3051Y-106220D01*
X3083Y-106160D01*
X3120Y-106100D01*
X3166Y-106040D01*
X3217Y-105984D01*
X3273Y-105934D01*
X3277Y-105929D01*
X3291Y-105920D01*
X3314Y-105906D01*
X3351Y-105883D01*
X3393Y-105860D01*
X3448Y-105837D01*
X3513Y-105804D01*
X3587Y-105777D01*
X3670Y-105749D01*
X3767Y-105721D01*
X3873Y-105693D01*
X3993Y-105670D01*
X4123Y-105647D01*
X4261Y-105633D01*
X4414Y-105624D01*
X4575Y-105620D01*
X4668D01*
X4719Y-105624D01*
D02*
G37*
G36*
X6197Y-104464D02*
Y-104783D01*
X4127D01*
Y-105218D01*
X3767D01*
Y-104783D01*
X3000D01*
Y-104391D01*
X3767D01*
Y-103000D01*
X4127D01*
X6197Y-104464D01*
D02*
G37*
G36*
X-4593Y104995D02*
X-4584Y104986D01*
X-4579Y104968D01*
X-4565Y104945D01*
X-4551Y104917D01*
X-4533Y104885D01*
X-4487Y104806D01*
X-4436Y104714D01*
X-4371Y104621D01*
X-4297Y104524D01*
X-4219Y104427D01*
X-4214Y104422D01*
X-4210Y104418D01*
X-4196Y104404D01*
X-4182Y104385D01*
X-4136Y104344D01*
X-4080Y104288D01*
X-4016Y104233D01*
X-3942Y104173D01*
X-3868Y104122D01*
X-3789Y104076D01*
Y103822D01*
X-7000D01*
Y104215D01*
X-4501D01*
X-4505Y104219D01*
X-4524Y104242D01*
X-4551Y104270D01*
X-4584Y104316D01*
X-4625Y104367D01*
X-4671Y104432D01*
X-4722Y104506D01*
X-4773Y104589D01*
Y104593D01*
X-4778Y104598D01*
X-4796Y104626D01*
X-4819Y104672D01*
X-4847Y104727D01*
X-4879Y104792D01*
X-4912Y104861D01*
X-4944Y104931D01*
X-4972Y105000D01*
X-4593D01*
Y104995D01*
D02*
G37*
G36*
X3088Y104991D02*
X3129Y104986D01*
X3176Y104977D01*
X3222Y104968D01*
X3273Y104949D01*
X3277D01*
X3282Y104945D01*
X3309Y104935D01*
X3351Y104917D01*
X3407Y104889D01*
X3471Y104852D01*
X3545Y104806D01*
X3619Y104755D01*
X3698Y104691D01*
X3702D01*
X3707Y104681D01*
X3735Y104658D01*
X3776Y104616D01*
X3836Y104557D01*
X3906Y104487D01*
X3989Y104399D01*
X4081Y104293D01*
X4178Y104178D01*
X4183Y104173D01*
X4197Y104155D01*
X4220Y104127D01*
X4247Y104095D01*
X4284Y104053D01*
X4326Y104002D01*
X4372Y103951D01*
X4423Y103891D01*
X4534Y103776D01*
X4645Y103660D01*
X4700Y103605D01*
X4756Y103554D01*
X4806Y103508D01*
X4857Y103471D01*
X4862D01*
X4866Y103462D01*
X4880Y103452D01*
X4899Y103443D01*
X4950Y103411D01*
X5010Y103374D01*
X5084Y103341D01*
X5162Y103309D01*
X5250Y103291D01*
X5333Y103281D01*
X5342D01*
X5370Y103286D01*
X5416Y103291D01*
X5467Y103305D01*
X5532Y103323D01*
X5596Y103355D01*
X5661Y103397D01*
X5726Y103452D01*
X5735Y103462D01*
X5754Y103485D01*
X5777Y103517D01*
X5809Y103568D01*
X5837Y103632D01*
X5864Y103706D01*
X5883Y103794D01*
X5887Y103891D01*
Y103896D01*
Y103905D01*
Y103919D01*
X5883Y103937D01*
X5878Y103993D01*
X5864Y104058D01*
X5846Y104127D01*
X5814Y104205D01*
X5772Y104279D01*
X5717Y104349D01*
X5707Y104358D01*
X5684Y104376D01*
X5647Y104404D01*
X5592Y104432D01*
X5527Y104464D01*
X5444Y104492D01*
X5352Y104510D01*
X5245Y104519D01*
X5287Y104921D01*
X5291D01*
X5305Y104917D01*
X5328D01*
X5361Y104912D01*
X5398Y104903D01*
X5439Y104894D01*
X5490Y104880D01*
X5541Y104866D01*
X5652Y104829D01*
X5763Y104774D01*
X5818Y104741D01*
X5874Y104700D01*
X5925Y104658D01*
X5971Y104612D01*
X5975Y104607D01*
X5980Y104598D01*
X5994Y104584D01*
X6008Y104561D01*
X6026Y104533D01*
X6045Y104501D01*
X6068Y104464D01*
X6091Y104418D01*
X6114Y104367D01*
X6137Y104312D01*
X6155Y104252D01*
X6174Y104187D01*
X6188Y104118D01*
X6202Y104044D01*
X6206Y103965D01*
X6211Y103882D01*
Y103877D01*
Y103864D01*
Y103836D01*
X6206Y103803D01*
X6202Y103767D01*
X6197Y103720D01*
X6188Y103669D01*
X6179Y103619D01*
X6146Y103498D01*
X6100Y103378D01*
X6072Y103318D01*
X6040Y103258D01*
X5998Y103203D01*
X5952Y103152D01*
X5948Y103147D01*
X5943Y103138D01*
X5925Y103129D01*
X5906Y103110D01*
X5883Y103087D01*
X5850Y103064D01*
X5818Y103041D01*
X5777Y103013D01*
X5689Y102967D01*
X5578Y102921D01*
X5522Y102902D01*
X5458Y102893D01*
X5393Y102884D01*
X5324Y102879D01*
X5291D01*
X5255Y102884D01*
X5204Y102889D01*
X5148Y102898D01*
X5084Y102916D01*
X5014Y102935D01*
X4945Y102963D01*
X4936Y102967D01*
X4913Y102976D01*
X4876Y102995D01*
X4825Y103023D01*
X4769Y103060D01*
X4700Y103106D01*
X4631Y103161D01*
X4552Y103226D01*
X4543Y103235D01*
X4515Y103258D01*
X4492Y103281D01*
X4469Y103305D01*
X4441Y103332D01*
X4405Y103369D01*
X4368Y103406D01*
X4326Y103452D01*
X4280Y103498D01*
X4229Y103554D01*
X4178Y103614D01*
X4118Y103679D01*
X4058Y103753D01*
X3993Y103826D01*
X3989Y103831D01*
X3979Y103840D01*
X3966Y103859D01*
X3947Y103882D01*
X3919Y103910D01*
X3892Y103942D01*
X3832Y104016D01*
X3762Y104095D01*
X3693Y104168D01*
X3633Y104233D01*
X3610Y104261D01*
X3587Y104284D01*
X3582Y104288D01*
X3568Y104302D01*
X3550Y104321D01*
X3522Y104344D01*
X3490Y104367D01*
X3457Y104395D01*
X3379Y104450D01*
Y102875D01*
X3000D01*
Y104995D01*
X3051D01*
X3088Y104991D01*
D02*
G37*
G36*
X-4792Y-105486D02*
X-4750Y-105490D01*
X-4699Y-105495D01*
X-4648Y-105504D01*
X-4588Y-105518D01*
X-4468Y-105550D01*
X-4404Y-105573D01*
X-4334Y-105601D01*
X-4270Y-105633D01*
X-4210Y-105675D01*
X-4145Y-105717D01*
X-4089Y-105767D01*
X-4085Y-105772D01*
X-4075Y-105781D01*
X-4062Y-105795D01*
X-4043Y-105818D01*
X-4020Y-105846D01*
X-3992Y-105883D01*
X-3969Y-105920D01*
X-3937Y-105966D01*
X-3909Y-106012D01*
X-3886Y-106068D01*
X-3835Y-106192D01*
X-3817Y-106257D01*
X-3803Y-106331D01*
X-3794Y-106405D01*
X-3789Y-106483D01*
Y-106488D01*
Y-106497D01*
Y-106516D01*
X-3794Y-106539D01*
Y-106562D01*
X-3798Y-106594D01*
X-3812Y-106673D01*
X-3831Y-106761D01*
X-3863Y-106858D01*
X-3905Y-106955D01*
X-3960Y-107052D01*
Y-107056D01*
X-3969Y-107061D01*
X-3979Y-107075D01*
X-3992Y-107093D01*
X-4029Y-107140D01*
X-4080Y-107200D01*
X-4149Y-107260D01*
X-4233Y-107329D01*
X-4330Y-107389D01*
X-4440Y-107444D01*
X-4445D01*
X-4454Y-107449D01*
X-4473Y-107458D01*
X-4496Y-107467D01*
X-4528Y-107477D01*
X-4570Y-107491D01*
X-4616Y-107500D01*
X-4667Y-107514D01*
X-4727Y-107528D01*
X-4796Y-107542D01*
X-4870Y-107551D01*
X-4949Y-107560D01*
X-5037Y-107569D01*
X-5129Y-107578D01*
X-5231Y-107583D01*
X-5438D01*
X-5489Y-107578D01*
X-5549D01*
X-5619Y-107574D01*
X-5688Y-107565D01*
X-5845Y-107551D01*
X-6011Y-107528D01*
X-6168Y-107495D01*
X-6247Y-107472D01*
X-6316Y-107449D01*
X-6321D01*
X-6330Y-107444D01*
X-6349Y-107435D01*
X-6376Y-107426D01*
X-6404Y-107412D01*
X-6441Y-107394D01*
X-6520Y-107347D01*
X-6607Y-107292D01*
X-6700Y-107227D01*
X-6787Y-107144D01*
X-6866Y-107052D01*
Y-107047D01*
X-6875Y-107038D01*
X-6884Y-107024D01*
X-6894Y-107006D01*
X-6908Y-106978D01*
X-6926Y-106950D01*
X-6945Y-106913D01*
X-6958Y-106876D01*
X-6995Y-106788D01*
X-7028Y-106682D01*
X-7046Y-106567D01*
X-7055Y-106437D01*
Y-106433D01*
Y-106419D01*
Y-106400D01*
X-7051Y-106377D01*
Y-106345D01*
X-7046Y-106308D01*
X-7028Y-106220D01*
X-7005Y-106123D01*
X-6968Y-106021D01*
X-6917Y-105920D01*
X-6884Y-105869D01*
X-6848Y-105823D01*
X-6843Y-105818D01*
X-6838Y-105814D01*
X-6824Y-105800D01*
X-6811Y-105786D01*
X-6787Y-105767D01*
X-6760Y-105744D01*
X-6695Y-105698D01*
X-6612Y-105652D01*
X-6510Y-105606D01*
X-6395Y-105569D01*
X-6261Y-105541D01*
X-6228Y-105920D01*
X-6233D01*
X-6242Y-105924D01*
X-6252D01*
X-6270Y-105929D01*
X-6321Y-105943D01*
X-6376Y-105961D01*
X-6441Y-105984D01*
X-6506Y-106017D01*
X-6566Y-106054D01*
X-6617Y-106100D01*
X-6621Y-106105D01*
X-6635Y-106123D01*
X-6654Y-106156D01*
X-6672Y-106192D01*
X-6695Y-106243D01*
X-6714Y-106303D01*
X-6727Y-106373D01*
X-6732Y-106447D01*
Y-106456D01*
Y-106479D01*
X-6727Y-106511D01*
X-6723Y-106553D01*
X-6714Y-106604D01*
X-6700Y-106654D01*
X-6681Y-106710D01*
X-6654Y-106761D01*
X-6649Y-106765D01*
X-6640Y-106784D01*
X-6621Y-106811D01*
X-6593Y-106839D01*
X-6561Y-106876D01*
X-6524Y-106913D01*
X-6483Y-106950D01*
X-6432Y-106987D01*
X-6427Y-106992D01*
X-6404Y-107001D01*
X-6372Y-107019D01*
X-6330Y-107038D01*
X-6275Y-107061D01*
X-6210Y-107084D01*
X-6136Y-107107D01*
X-6053Y-107130D01*
X-6048D01*
X-6044Y-107135D01*
X-6030D01*
X-6011Y-107140D01*
X-5965Y-107149D01*
X-5905Y-107163D01*
X-5831Y-107172D01*
X-5753Y-107181D01*
X-5665Y-107186D01*
X-5572Y-107190D01*
X-5494D01*
X-5503Y-107186D01*
X-5526Y-107167D01*
X-5559Y-107140D01*
X-5605Y-107107D01*
X-5651Y-107061D01*
X-5702Y-107006D01*
X-5753Y-106941D01*
X-5799Y-106867D01*
X-5803Y-106858D01*
X-5817Y-106830D01*
X-5836Y-106788D01*
X-5854Y-106738D01*
X-5877Y-106668D01*
X-5896Y-106594D01*
X-5910Y-106511D01*
X-5914Y-106423D01*
Y-106419D01*
Y-106405D01*
Y-106386D01*
X-5910Y-106359D01*
X-5905Y-106322D01*
X-5900Y-106285D01*
X-5891Y-106239D01*
X-5877Y-106192D01*
X-5845Y-106086D01*
X-5822Y-106031D01*
X-5794Y-105975D01*
X-5762Y-105915D01*
X-5720Y-105860D01*
X-5679Y-105804D01*
X-5628Y-105754D01*
X-5623Y-105749D01*
X-5614Y-105740D01*
X-5600Y-105730D01*
X-5577Y-105712D01*
X-5545Y-105689D01*
X-5512Y-105666D01*
X-5471Y-105643D01*
X-5425Y-105620D01*
X-5374Y-105592D01*
X-5318Y-105569D01*
X-5254Y-105546D01*
X-5189Y-105523D01*
X-5115Y-105504D01*
X-5037Y-105495D01*
X-4958Y-105486D01*
X-4870Y-105481D01*
X-4824D01*
X-4792Y-105486D01*
D02*
G37*
G36*
X-6104Y-103393D02*
X-6108D01*
X-6118Y-103397D01*
X-6136Y-103402D01*
X-6159Y-103407D01*
X-6187Y-103411D01*
X-6219Y-103420D01*
X-6289Y-103444D01*
X-6372Y-103476D01*
X-6450Y-103517D01*
X-6524Y-103564D01*
X-6589Y-103619D01*
X-6593Y-103628D01*
X-6612Y-103647D01*
X-6635Y-103684D01*
X-6658Y-103730D01*
X-6686Y-103785D01*
X-6709Y-103855D01*
X-6727Y-103933D01*
X-6732Y-104016D01*
Y-104021D01*
Y-104030D01*
Y-104044D01*
X-6727Y-104063D01*
X-6723Y-104113D01*
X-6709Y-104178D01*
X-6686Y-104252D01*
X-6654Y-104331D01*
X-6607Y-104409D01*
X-6543Y-104483D01*
X-6533Y-104492D01*
X-6506Y-104515D01*
X-6464Y-104543D01*
X-6409Y-104580D01*
X-6339Y-104617D01*
X-6261Y-104645D01*
X-6168Y-104668D01*
X-6067Y-104677D01*
X-6039D01*
X-6021Y-104672D01*
X-5970Y-104668D01*
X-5910Y-104654D01*
X-5836Y-104636D01*
X-5762Y-104603D01*
X-5688Y-104557D01*
X-5619Y-104497D01*
X-5609Y-104488D01*
X-5591Y-104464D01*
X-5563Y-104428D01*
X-5531Y-104377D01*
X-5499Y-104312D01*
X-5471Y-104234D01*
X-5452Y-104146D01*
X-5443Y-104049D01*
Y-104044D01*
Y-104030D01*
Y-104007D01*
X-5448Y-103975D01*
X-5452Y-103933D01*
X-5461Y-103887D01*
X-5471Y-103832D01*
X-5485Y-103771D01*
X-5138Y-103818D01*
Y-103822D01*
Y-103841D01*
X-5143Y-103859D01*
Y-103878D01*
Y-103882D01*
Y-103887D01*
Y-103901D01*
Y-103919D01*
X-5133Y-103970D01*
X-5124Y-104030D01*
X-5110Y-104100D01*
X-5087Y-104178D01*
X-5055Y-104252D01*
X-5013Y-104331D01*
Y-104335D01*
X-5009Y-104340D01*
X-4990Y-104363D01*
X-4958Y-104395D01*
X-4916Y-104432D01*
X-4856Y-104469D01*
X-4787Y-104501D01*
X-4708Y-104525D01*
X-4662Y-104534D01*
X-4575D01*
X-4538Y-104525D01*
X-4487Y-104515D01*
X-4431Y-104497D01*
X-4371Y-104474D01*
X-4311Y-104437D01*
X-4256Y-104386D01*
X-4251Y-104381D01*
X-4233Y-104358D01*
X-4210Y-104326D01*
X-4182Y-104284D01*
X-4159Y-104229D01*
X-4136Y-104164D01*
X-4117Y-104090D01*
X-4112Y-104007D01*
Y-104002D01*
Y-103998D01*
Y-103970D01*
X-4122Y-103929D01*
X-4131Y-103873D01*
X-4149Y-103813D01*
X-4173Y-103753D01*
X-4210Y-103688D01*
X-4256Y-103628D01*
X-4260Y-103624D01*
X-4283Y-103605D01*
X-4316Y-103577D01*
X-4362Y-103545D01*
X-4422Y-103513D01*
X-4496Y-103481D01*
X-4584Y-103453D01*
X-4685Y-103434D01*
X-4616Y-103042D01*
X-4611D01*
X-4598Y-103046D01*
X-4579Y-103051D01*
X-4551Y-103055D01*
X-4519Y-103065D01*
X-4482Y-103078D01*
X-4394Y-103106D01*
X-4293Y-103153D01*
X-4191Y-103208D01*
X-4094Y-103277D01*
X-4006Y-103365D01*
X-4002Y-103370D01*
X-3997Y-103379D01*
X-3988Y-103393D01*
X-3974Y-103411D01*
X-3955Y-103434D01*
X-3937Y-103467D01*
X-3918Y-103499D01*
X-3895Y-103541D01*
X-3858Y-103633D01*
X-3821Y-103739D01*
X-3798Y-103864D01*
X-3789Y-103929D01*
Y-103998D01*
Y-104002D01*
Y-104012D01*
Y-104026D01*
Y-104044D01*
X-3794Y-104095D01*
X-3803Y-104155D01*
X-3817Y-104229D01*
X-3840Y-104312D01*
X-3868Y-104395D01*
X-3905Y-104478D01*
Y-104483D01*
X-3909Y-104488D01*
X-3923Y-104515D01*
X-3951Y-104557D01*
X-3983Y-104603D01*
X-4029Y-104659D01*
X-4080Y-104714D01*
X-4140Y-104770D01*
X-4210Y-104816D01*
X-4219Y-104820D01*
X-4242Y-104834D01*
X-4283Y-104853D01*
X-4334Y-104876D01*
X-4394Y-104899D01*
X-4464Y-104917D01*
X-4542Y-104931D01*
X-4621Y-104936D01*
X-4658D01*
X-4695Y-104931D01*
X-4745Y-104922D01*
X-4806Y-104908D01*
X-4870Y-104885D01*
X-4935Y-104857D01*
X-5000Y-104820D01*
X-5009Y-104816D01*
X-5027Y-104802D01*
X-5060Y-104774D01*
X-5097Y-104737D01*
X-5138Y-104691D01*
X-5184Y-104636D01*
X-5226Y-104571D01*
X-5268Y-104492D01*
Y-104497D01*
X-5272Y-104506D01*
X-5277Y-104520D01*
X-5281Y-104539D01*
X-5300Y-104589D01*
X-5328Y-104654D01*
X-5364Y-104728D01*
X-5411Y-104802D01*
X-5471Y-104871D01*
X-5540Y-104936D01*
X-5549Y-104940D01*
X-5577Y-104959D01*
X-5623Y-104987D01*
X-5683Y-105014D01*
X-5757Y-105042D01*
X-5845Y-105070D01*
X-5947Y-105088D01*
X-6058Y-105093D01*
X-6099D01*
X-6127Y-105088D01*
X-6164Y-105084D01*
X-6205Y-105074D01*
X-6252Y-105065D01*
X-6302Y-105056D01*
X-6413Y-105019D01*
X-6473Y-104991D01*
X-6529Y-104964D01*
X-6589Y-104927D01*
X-6649Y-104885D01*
X-6709Y-104839D01*
X-6764Y-104783D01*
X-6769Y-104779D01*
X-6778Y-104770D01*
X-6792Y-104751D01*
X-6811Y-104728D01*
X-6834Y-104700D01*
X-6857Y-104663D01*
X-6884Y-104622D01*
X-6908Y-104571D01*
X-6935Y-104520D01*
X-6963Y-104460D01*
X-6986Y-104400D01*
X-7009Y-104331D01*
X-7028Y-104257D01*
X-7042Y-104178D01*
X-7051Y-104100D01*
X-7055Y-104012D01*
Y-104007D01*
Y-103993D01*
Y-103970D01*
X-7051Y-103943D01*
X-7046Y-103905D01*
X-7042Y-103864D01*
X-7032Y-103818D01*
X-7023Y-103767D01*
X-6995Y-103656D01*
X-6949Y-103541D01*
X-6921Y-103481D01*
X-6889Y-103425D01*
X-6848Y-103370D01*
X-6806Y-103314D01*
X-6801Y-103310D01*
X-6792Y-103300D01*
X-6778Y-103286D01*
X-6760Y-103273D01*
X-6737Y-103250D01*
X-6704Y-103226D01*
X-6672Y-103199D01*
X-6630Y-103171D01*
X-6584Y-103143D01*
X-6538Y-103115D01*
X-6427Y-103065D01*
X-6298Y-103023D01*
X-6228Y-103009D01*
X-6154Y-103000D01*
X-6104Y-103393D01*
D02*
G37*
%LPC*%
G36*
X4575Y-106021D02*
X4501D01*
X4446Y-106026D01*
X4386D01*
X4312Y-106031D01*
X4233Y-106035D01*
X4150Y-106045D01*
X3970Y-106068D01*
X3882Y-106081D01*
X3799Y-106100D01*
X3721Y-106119D01*
X3647Y-106146D01*
X3582Y-106174D01*
X3527Y-106206D01*
X3522D01*
X3517Y-106216D01*
X3485Y-106239D01*
X3444Y-106280D01*
X3397Y-106331D01*
X3351Y-106400D01*
X3309Y-106479D01*
X3277Y-106567D01*
X3273Y-106613D01*
X3268Y-106664D01*
Y-106668D01*
Y-106677D01*
Y-106691D01*
X3273Y-106710D01*
X3282Y-106756D01*
X3300Y-106821D01*
X3333Y-106890D01*
X3379Y-106969D01*
X3407Y-107006D01*
X3444Y-107043D01*
X3480Y-107080D01*
X3527Y-107116D01*
X3531D01*
X3540Y-107126D01*
X3554Y-107135D01*
X3577Y-107144D01*
X3610Y-107163D01*
X3651Y-107176D01*
X3698Y-107195D01*
X3753Y-107213D01*
X3822Y-107227D01*
X3896Y-107246D01*
X3984Y-107264D01*
X4076Y-107278D01*
X4187Y-107287D01*
X4303Y-107297D01*
X4432Y-107306D01*
X4649D01*
X4705Y-107301D01*
X4765D01*
X4839Y-107297D01*
X4917Y-107292D01*
X5005Y-107283D01*
X5181Y-107260D01*
X5268Y-107246D01*
X5352Y-107227D01*
X5430Y-107209D01*
X5504Y-107181D01*
X5569Y-107153D01*
X5624Y-107121D01*
X5629D01*
X5633Y-107112D01*
X5647Y-107103D01*
X5666Y-107089D01*
X5707Y-107047D01*
X5758Y-106996D01*
X5804Y-106927D01*
X5846Y-106849D01*
X5864Y-106807D01*
X5878Y-106761D01*
X5883Y-106710D01*
X5887Y-106659D01*
Y-106654D01*
Y-106645D01*
Y-106631D01*
X5883Y-106613D01*
X5874Y-106562D01*
X5860Y-106502D01*
X5832Y-106433D01*
X5790Y-106359D01*
X5763Y-106322D01*
X5735Y-106285D01*
X5698Y-106253D01*
X5657Y-106220D01*
X5652D01*
X5643Y-106211D01*
X5624Y-106202D01*
X5601Y-106188D01*
X5564Y-106174D01*
X5522Y-106156D01*
X5472Y-106142D01*
X5412Y-106123D01*
X5342Y-106105D01*
X5264Y-106086D01*
X5176Y-106068D01*
X5079Y-106054D01*
X4968Y-106040D01*
X4848Y-106031D01*
X4719Y-106026D01*
X4575Y-106021D01*
D02*
G37*
G36*
X4127Y-103384D02*
Y-104391D01*
X5559D01*
X4127Y-103384D01*
D02*
G37*
G36*
X-4884Y-105883D02*
X-4912D01*
X-4935Y-105887D01*
X-4963D01*
X-4990Y-105892D01*
X-5060Y-105906D01*
X-5138Y-105929D01*
X-5221Y-105957D01*
X-5305Y-106003D01*
X-5378Y-106063D01*
X-5388Y-106072D01*
X-5406Y-106095D01*
X-5438Y-106137D01*
X-5471Y-106188D01*
X-5508Y-106257D01*
X-5540Y-106336D01*
X-5559Y-106423D01*
X-5568Y-106520D01*
Y-106525D01*
Y-106534D01*
Y-106548D01*
X-5563Y-106567D01*
X-5559Y-106617D01*
X-5545Y-106677D01*
X-5522Y-106751D01*
X-5489Y-106825D01*
X-5443Y-106899D01*
X-5378Y-106969D01*
X-5369Y-106978D01*
X-5341Y-106996D01*
X-5300Y-107024D01*
X-5240Y-107061D01*
X-5166Y-107093D01*
X-5078Y-107121D01*
X-4972Y-107140D01*
X-4852Y-107149D01*
X-4819D01*
X-4796Y-107144D01*
X-4764D01*
X-4732Y-107140D01*
X-4658Y-107126D01*
X-4570Y-107107D01*
X-4478Y-107075D01*
X-4390Y-107029D01*
X-4311Y-106969D01*
X-4307D01*
X-4302Y-106959D01*
X-4279Y-106936D01*
X-4247Y-106899D01*
X-4210Y-106849D01*
X-4177Y-106784D01*
X-4145Y-106710D01*
X-4122Y-106627D01*
X-4112Y-106580D01*
Y-106534D01*
Y-106530D01*
Y-106520D01*
Y-106507D01*
X-4117Y-106488D01*
X-4122Y-106437D01*
X-4140Y-106377D01*
X-4163Y-106303D01*
X-4205Y-106225D01*
X-4256Y-106146D01*
X-4293Y-106109D01*
X-4330Y-106072D01*
X-4334D01*
X-4339Y-106063D01*
X-4353Y-106054D01*
X-4367Y-106045D01*
X-4413Y-106012D01*
X-4478Y-105980D01*
X-4556Y-105943D01*
X-4653Y-105911D01*
X-4764Y-105892D01*
X-4884Y-105883D01*
D02*
G37*
%LPD*%
D10*
X-120545Y-30000D02*
X16000D01*
X-124364Y-37000D02*
X-120545Y-30000D01*
X-137500Y-37000D02*
X-124364D01*
X-137500D02*
Y26000D01*
Y27000D01*
X-156500D02*
X-137500D01*
X-156500D02*
Y127000D01*
X-194000Y-74000D02*
X-199998D01*
Y-71001D01*
X-198998Y-70001D01*
X-196999D01*
X-195999Y-71001D01*
Y-74000D01*
Y-72001D02*
X-194000Y-70001D01*
X-197999Y-67002D02*
Y-65003D01*
X-196999Y-64003D01*
X-194000D01*
Y-67002D01*
X-195000Y-68002D01*
X-195999Y-67002D01*
Y-64003D01*
X-194000Y-62004D02*
Y-59005D01*
X-195000Y-58005D01*
X-195999Y-59005D01*
Y-61004D01*
X-196999Y-62004D01*
X-197999Y-61004D01*
Y-58005D01*
X-192001Y-56006D02*
X-197999D01*
Y-53007D01*
X-196999Y-52007D01*
X-195000D01*
X-194000Y-53007D01*
Y-56006D01*
X-199998Y-50008D02*
X-194000D01*
Y-47009D01*
X-195000Y-46009D01*
X-195999D01*
X-196999D01*
X-197999Y-47009D01*
Y-50008D01*
X-194000Y-41011D02*
Y-43010D01*
X-195000Y-44010D01*
X-196999D01*
X-197999Y-43010D01*
Y-41011D01*
X-196999Y-40011D01*
X-195999D01*
Y-44010D01*
X-197999Y-38012D02*
X-194000D01*
X-195999D01*
X-196999Y-37012D01*
X-197999Y-36012D01*
Y-35013D01*
Y-32014D02*
X-194000D01*
X-195999D01*
X-196999Y-31014D01*
X-197999Y-30014D01*
Y-29015D01*
Y-26015D02*
X-195000D01*
X-194000Y-25016D01*
Y-22017D01*
X-193000D01*
X-192001Y-23017D01*
Y-24016D01*
X-194000Y-22017D02*
X-197999D01*
X-194000Y-14019D02*
X-199998D01*
Y-11020D01*
X-198998Y-10021D01*
X-196999D01*
X-195999Y-11020D01*
Y-14019D01*
X-194000Y-8021D02*
Y-6022D01*
Y-7022D01*
X-197999D01*
Y-8021D01*
X-198998Y6974D02*
X-199998Y5974D01*
Y3975D01*
X-198998Y2975D01*
X-195000D01*
X-194000Y3975D01*
Y5974D01*
X-195000Y6974D01*
X-196999D01*
Y4975D01*
X-194000Y8973D02*
X-199998D01*
Y11972D01*
X-198998Y12972D01*
X-196999D01*
X-195999Y11972D01*
Y8973D01*
X-199998Y14971D02*
Y16971D01*
Y15971D01*
X-194000D01*
Y14971D01*
Y16971D01*
X-199998Y22969D02*
Y20969D01*
X-198998Y19970D01*
X-195000D01*
X-194000Y20969D01*
Y22969D01*
X-195000Y23968D01*
X-198998D01*
X-199998Y22969D01*
Y31966D02*
X-194000D01*
Y34965D01*
X-195000Y35964D01*
X-195999D01*
X-196999Y34965D01*
Y31966D01*
Y34965D01*
X-197999Y35964D01*
X-198998D01*
X-199998Y34965D01*
Y31966D01*
X-197999Y37964D02*
X-194000D01*
X-195999D01*
X-196999Y38963D01*
X-197999Y39963D01*
Y40963D01*
X-194000Y46961D02*
Y44962D01*
X-195000Y43962D01*
X-196999D01*
X-197999Y44962D01*
Y46961D01*
X-196999Y47961D01*
X-195999D01*
Y43962D01*
X-197999Y50960D02*
Y52959D01*
X-196999Y53959D01*
X-194000D01*
Y50960D01*
X-195000Y49960D01*
X-195999Y50960D01*
Y53959D01*
X-194000Y55958D02*
X-199998D01*
X-195999D02*
X-197999Y58957D01*
X-195999Y55958D02*
X-194000Y58957D01*
Y62956D02*
Y64955D01*
X-195000Y65955D01*
X-196999D01*
X-197999Y64955D01*
Y62956D01*
X-196999Y61956D01*
X-195000D01*
X-194000Y62956D01*
X-197999Y67954D02*
X-195000D01*
X-194000Y68954D01*
Y71953D01*
X-197999D01*
X-198998Y74952D02*
X-197999D01*
Y73952D01*
Y75951D01*
Y74952D01*
X-195000D01*
X-194000Y75951D01*
X-183500Y-19501D02*
X-185499Y-21500D01*
X-187499D01*
X-189498Y-19501D01*
X-188498Y-12503D02*
X-189498Y-13503D01*
Y-15502D01*
X-188498Y-16502D01*
X-184500D01*
X-183500Y-15502D01*
Y-13503D01*
X-184500Y-12503D01*
X-183500Y-10504D02*
X-185499Y-8504D01*
X-187499D01*
X-189498Y-10504D01*
X-183500Y4492D02*
Y493D01*
X-187499Y4492D01*
X-188498D01*
X-189498Y3492D01*
Y1493D01*
X-188498Y493D01*
Y6491D02*
X-189498Y7491D01*
Y9490D01*
X-188498Y10490D01*
X-184500D01*
X-183500Y9490D01*
Y7491D01*
X-184500Y6491D01*
X-188498D01*
X-183500Y12489D02*
Y14488D01*
Y13489D01*
X-189498D01*
X-188498Y12489D01*
X-189498Y17487D02*
Y21486D01*
X-188498D01*
X-184500Y17487D01*
X-183500D01*
X-178498Y-67001D02*
X-179498Y-68001D01*
Y-70000D01*
X-178498Y-71000D01*
X-174500D01*
X-173500Y-70000D01*
Y-68001D01*
X-174500Y-67001D01*
X-173500Y-64002D02*
Y-62003D01*
X-174500Y-61003D01*
X-176499D01*
X-177499Y-62003D01*
Y-64002D01*
X-176499Y-65002D01*
X-174500D01*
X-173500Y-64002D01*
Y-59004D02*
X-177499D01*
Y-56005D01*
X-176499Y-55005D01*
X-173500D01*
Y-53006D02*
Y-51007D01*
Y-52006D01*
X-179498D01*
Y-53006D01*
X-177499Y-47008D02*
Y-45008D01*
X-176499Y-44009D01*
X-173500D01*
Y-47008D01*
X-174500Y-48007D01*
X-175499Y-47008D01*
Y-44009D01*
X-173500Y-42009D02*
X-177499D01*
Y-39010D01*
X-176499Y-38011D01*
X-173500D01*
X-178498Y-32013D02*
X-179498Y-33012D01*
Y-35012D01*
X-178498Y-36011D01*
X-174500D01*
X-173500Y-35012D01*
Y-33012D01*
X-174500Y-32013D01*
X-173500Y-30013D02*
Y-28014D01*
Y-29014D01*
X-179498D01*
Y-30013D01*
X-177499Y-25015D02*
X-174500D01*
X-173500Y-24015D01*
Y-21016D01*
X-172500D01*
X-171501Y-22016D01*
Y-23016D01*
X-173500Y-21016D02*
X-177499D01*
X-173500Y-19017D02*
X-177499D01*
Y-16018D01*
X-176499Y-15018D01*
X-173500D01*
Y-10020D02*
Y-12019D01*
X-174500Y-13019D01*
X-176499D01*
X-177499Y-12019D01*
Y-10020D01*
X-176499Y-9020D01*
X-175499D01*
Y-13019D01*
X-173500Y-7021D02*
Y-4022D01*
X-174500Y-3022D01*
X-175499Y-4022D01*
Y-6021D01*
X-176499Y-7021D01*
X-177499Y-6021D01*
Y-3022D01*
X-179498Y4975D02*
X-173500D01*
Y7975D01*
X-174500Y8974D01*
X-178498D01*
X-179498Y7975D01*
Y4975D01*
X-173500Y13972D02*
Y11973D01*
X-174500Y10973D01*
X-176499D01*
X-177499Y11973D01*
Y13972D01*
X-176499Y14972D01*
X-175499D01*
Y10973D01*
X-173500Y16972D02*
Y19971D01*
X-174500Y20970D01*
X-175499Y19971D01*
Y17971D01*
X-176499Y16972D01*
X-177499Y17971D01*
Y20970D01*
X-173500Y22970D02*
Y24969D01*
Y23969D01*
X-177499D01*
Y22970D01*
X-171501Y29967D02*
Y30967D01*
X-172500Y31967D01*
X-177499D01*
Y28968D01*
X-176499Y27968D01*
X-174500D01*
X-173500Y28968D01*
Y31967D01*
Y33966D02*
X-177499D01*
Y36965D01*
X-176499Y37965D01*
X-173500D01*
X-178498Y49961D02*
X-179498Y48961D01*
Y46962D01*
X-178498Y45962D01*
X-174500D01*
X-173500Y46962D01*
Y48961D01*
X-174500Y49961D01*
X-176499D01*
Y47962D01*
X-177499Y51960D02*
X-173500D01*
X-175499D01*
X-176499Y52960D01*
X-177499Y53960D01*
Y54959D01*
X-173500Y58958D02*
Y60957D01*
X-174500Y61957D01*
X-176499D01*
X-177499Y60957D01*
Y58958D01*
X-176499Y57958D01*
X-174500D01*
X-173500Y58958D01*
X-177499Y63956D02*
X-174500D01*
X-173500Y64956D01*
Y67955D01*
X-177499D01*
X-171501Y69954D02*
X-177499D01*
Y72953D01*
X-176499Y73953D01*
X-174500D01*
X-173500Y72953D01*
Y69954D01*
X-168498Y-54000D02*
X-162500D01*
Y-51001D01*
X-163500Y-50001D01*
X-167498D01*
X-168498Y-51001D01*
Y-54000D01*
X-162500Y-47002D02*
Y-45003D01*
X-163500Y-44003D01*
X-165499D01*
X-166499Y-45003D01*
Y-47002D01*
X-165499Y-48002D01*
X-163500D01*
X-162500Y-47002D01*
X-166499Y-36006D02*
X-163500D01*
X-162500Y-35006D01*
X-163500Y-34007D01*
X-162500Y-33007D01*
X-163500Y-32007D01*
X-166499D01*
X-162500Y-30008D02*
Y-28008D01*
Y-29008D01*
X-166499D01*
Y-30008D01*
X-167498Y-24010D02*
X-166499D01*
Y-25009D01*
Y-23010D01*
Y-24010D01*
X-163500D01*
X-162500Y-23010D01*
X-168498Y-20011D02*
X-162500D01*
X-165499D01*
X-166499Y-19011D01*
Y-17012D01*
X-165499Y-16012D01*
X-162500D01*
X-166499Y-7015D02*
Y-5016D01*
X-165499Y-4016D01*
X-162500D01*
Y-7015D01*
X-163500Y-8015D01*
X-164499Y-7015D01*
Y-4016D01*
X-162500Y-2017D02*
Y982D01*
X-163500Y1982D01*
X-164499Y982D01*
Y-1017D01*
X-165499Y-2017D01*
X-166499Y-1017D01*
Y1982D01*
Y9979D02*
X-163500D01*
X-162500Y10979D01*
Y13978D01*
X-161500D01*
X-160501Y12978D01*
Y11979D01*
X-162500Y13978D02*
X-166499D01*
X-162500Y16977D02*
Y18976D01*
X-163500Y19976D01*
X-165499D01*
X-166499Y18976D01*
Y16977D01*
X-165499Y15977D01*
X-163500D01*
X-162500Y16977D01*
X-166499Y21975D02*
X-163500D01*
X-162500Y22975D01*
Y25974D01*
X-166499D01*
Y33972D02*
X-163500D01*
X-162500Y34971D01*
X-163500Y35971D01*
X-162500Y36971D01*
X-163500Y37970D01*
X-166499D01*
X-162500Y39970D02*
Y41969D01*
Y40969D01*
X-166499D01*
Y39970D01*
X-162500Y44968D02*
Y47967D01*
X-163500Y48967D01*
X-164499Y47967D01*
Y45968D01*
X-165499Y44968D01*
X-166499Y45968D01*
Y48967D01*
X-168498Y50966D02*
X-162500D01*
X-165499D01*
X-166499Y51966D01*
Y53965D01*
X-165499Y54965D01*
X-162500D01*
D17*
X-36890Y45650D02*
X-23110D01*
X-15433D01*
X-44567Y68287D02*
X-15433D01*
Y45650D02*
Y48898D01*
Y52835D02*
Y68287D01*
X-44567Y48898D02*
Y52835D01*
Y45650D02*
X-36890D01*
X-44567Y52835D02*
Y68287D01*
X-15433Y48898D02*
Y52835D01*
X-44567Y45650D02*
Y48898D01*
X-74390Y70650D02*
X-60610D01*
X-52933D01*
X-82067Y93287D02*
X-52933D01*
Y70650D02*
Y73898D01*
Y77835D02*
Y93287D01*
X-82067Y73898D02*
Y77835D01*
Y70650D02*
X-74390D01*
X-82067Y77835D02*
Y93287D01*
X-52933Y73898D02*
Y77835D01*
X-82067Y70650D02*
Y73898D01*
X-71890Y95650D02*
X-58110D01*
X-50433D01*
X-79567Y118287D02*
X-50433D01*
Y95650D02*
Y98898D01*
Y102835D02*
Y118287D01*
X-79567Y98898D02*
Y102835D01*
Y95650D02*
X-71890D01*
X-79567Y102835D02*
Y118287D01*
X-50433Y98898D02*
Y102835D01*
X-79567Y95650D02*
Y98898D01*
X-36890Y95650D02*
X-23110D01*
X-15433D01*
X-44567Y118287D02*
X-15433D01*
Y95650D02*
Y98898D01*
Y102835D02*
Y118287D01*
X-44567Y98898D02*
Y102835D01*
Y95650D02*
X-36890D01*
X-44567Y102835D02*
Y118287D01*
X-15433Y98898D02*
Y102835D01*
X-44567Y95650D02*
Y98898D01*
X-10000Y-100000D02*
X10000D01*
X-10000Y100000D02*
X10000D01*
Y-100000D02*
Y100000D01*
X-10000Y-100000D02*
Y100000D01*
X-36890Y70650D02*
X-23110D01*
X-15433D01*
X-44567Y93287D02*
X-15433D01*
Y70650D02*
Y73898D01*
Y77835D02*
Y93287D01*
X-44567Y73898D02*
Y77835D01*
Y70650D02*
X-36890D01*
X-44567Y77835D02*
Y93287D01*
X-15433Y73898D02*
Y77835D01*
X-44567Y70650D02*
Y73898D01*
X-111890Y70650D02*
X-98110D01*
X-90433D01*
X-119567Y93287D02*
X-90433D01*
Y70650D02*
Y73898D01*
Y77835D02*
Y93287D01*
X-119567Y73898D02*
Y77835D01*
Y70650D02*
X-111890D01*
X-119567Y77835D02*
Y93287D01*
X-90433Y73898D02*
Y77835D01*
X-119567Y70650D02*
Y73898D01*
X-74390Y45650D02*
X-60610D01*
X-52933D01*
X-82067Y68287D02*
X-52933D01*
Y45650D02*
Y48898D01*
Y52835D02*
Y68287D01*
X-82067Y48898D02*
Y52835D01*
Y45650D02*
X-74390D01*
X-82067Y52835D02*
Y68287D01*
X-52933Y48898D02*
Y52835D01*
X-82067Y45650D02*
Y48898D01*
X-74390Y20650D02*
X-60610D01*
X-52933D01*
X-82067Y43287D02*
X-52933D01*
Y20650D02*
Y23898D01*
Y27835D02*
Y43287D01*
X-82067Y23898D02*
Y27835D01*
Y20650D02*
X-74390D01*
X-82067Y27835D02*
Y43287D01*
X-52933Y23898D02*
Y27835D01*
X-82067Y20650D02*
Y23898D01*
X-111890Y20650D02*
X-98110D01*
X-90433D01*
X-119567Y43287D02*
X-90433D01*
Y20650D02*
Y23898D01*
Y27835D02*
Y43287D01*
X-119567Y23898D02*
Y27835D01*
Y20650D02*
X-111890D01*
X-119567Y27835D02*
Y43287D01*
X-90433Y23898D02*
Y27835D01*
X-119567Y20650D02*
Y23898D01*
X-111890Y45650D02*
X-98110D01*
X-90433D01*
X-119567Y68287D02*
X-90433D01*
Y45650D02*
Y48898D01*
Y52835D02*
Y68287D01*
X-119567Y48898D02*
Y52835D01*
Y45650D02*
X-111890D01*
X-119567Y52835D02*
Y68287D01*
X-90433Y48898D02*
Y52835D01*
X-119567Y45650D02*
Y48898D01*
X-111890Y-4350D02*
X-98110D01*
X-90433D01*
X-119567Y18287D02*
X-90433D01*
Y-4350D02*
Y-1102D01*
Y2835D02*
Y18287D01*
X-119567Y-1102D02*
Y2835D01*
Y-4350D02*
X-111890D01*
X-119567Y2835D02*
Y18287D01*
X-90433Y-1102D02*
Y2835D01*
X-119567Y-4350D02*
Y-1102D01*
X-36890Y20650D02*
X-23110D01*
X-15433D01*
X-44567Y43287D02*
X-15433D01*
Y20650D02*
Y23898D01*
Y27835D02*
Y43287D01*
X-44567Y23898D02*
Y27835D01*
Y20650D02*
X-36890D01*
X-44567Y27835D02*
Y43287D01*
X-15433Y23898D02*
Y27835D01*
X-44567Y20650D02*
Y23898D01*
X-36890Y-79350D02*
X-23110D01*
X-15433D01*
X-44567Y-56713D02*
X-15433D01*
Y-79350D02*
Y-76102D01*
Y-72165D02*
Y-56713D01*
X-44567Y-76102D02*
Y-72165D01*
Y-79350D02*
X-36890D01*
X-44567Y-72165D02*
Y-56713D01*
X-15433Y-76102D02*
Y-72165D01*
X-44567Y-79350D02*
Y-76102D01*
X-74390Y-29350D02*
X-60610D01*
X-52933D01*
X-82067Y-6713D02*
X-52933D01*
Y-29350D02*
Y-26102D01*
Y-22165D02*
Y-6713D01*
X-82067Y-26102D02*
Y-22165D01*
Y-29350D02*
X-74390D01*
X-82067Y-22165D02*
Y-6713D01*
X-52933Y-26102D02*
Y-22165D01*
X-82067Y-29350D02*
Y-26102D01*
X-36890Y-4350D02*
X-23110D01*
X-15433D01*
X-44567Y18287D02*
X-15433D01*
Y-4350D02*
Y-1102D01*
Y2835D02*
Y18287D01*
X-44567Y-1102D02*
Y2835D01*
Y-4350D02*
X-36890D01*
X-44567Y2835D02*
Y18287D01*
X-15433Y-1102D02*
Y2835D01*
X-44567Y-4350D02*
Y-1102D01*
X-111890Y-104350D02*
X-98110D01*
X-90433D01*
X-119567Y-81713D02*
X-90433D01*
Y-104350D02*
Y-101102D01*
Y-97165D02*
Y-81713D01*
X-119567Y-101102D02*
Y-97165D01*
Y-104350D02*
X-111890D01*
X-119567Y-97165D02*
Y-81713D01*
X-90433Y-101102D02*
Y-97165D01*
X-119567Y-104350D02*
Y-101102D01*
X-111890Y-29350D02*
X-98110D01*
X-90433D01*
X-119567Y-6713D02*
X-90433D01*
Y-29350D02*
Y-26102D01*
Y-22165D02*
Y-6713D01*
X-119567Y-26102D02*
Y-22165D01*
Y-29350D02*
X-111890D01*
X-119567Y-22165D02*
Y-6713D01*
X-90433Y-26102D02*
Y-22165D01*
X-119567Y-29350D02*
Y-26102D01*
X-74390Y-4350D02*
X-60610D01*
X-52933D01*
X-82067Y18287D02*
X-52933D01*
Y-4350D02*
Y-1102D01*
Y2835D02*
Y18287D01*
X-82067Y-1102D02*
Y2835D01*
Y-4350D02*
X-74390D01*
X-82067Y2835D02*
Y18287D01*
X-52933Y-1102D02*
Y2835D01*
X-82067Y-4350D02*
Y-1102D01*
X-74390Y-54350D02*
X-60610D01*
X-52933D01*
X-82067Y-31713D02*
X-52933D01*
Y-54350D02*
Y-51102D01*
Y-47165D02*
Y-31713D01*
X-82067Y-51102D02*
Y-47165D01*
Y-54350D02*
X-74390D01*
X-82067Y-47165D02*
Y-31713D01*
X-52933Y-51102D02*
Y-47165D01*
X-82067Y-54350D02*
Y-51102D01*
X-36890Y-29350D02*
X-23110D01*
X-15433D01*
X-44567Y-6713D02*
X-15433D01*
Y-29350D02*
Y-26102D01*
Y-22165D02*
Y-6713D01*
X-44567Y-26102D02*
Y-22165D01*
Y-29350D02*
X-36890D01*
X-44567Y-22165D02*
Y-6713D01*
X-15433Y-26102D02*
Y-22165D01*
X-44567Y-29350D02*
Y-26102D01*
X-148386Y-104331D02*
Y-45669D01*
X-125748D01*
Y-104331D02*
Y-45669D01*
X-148386Y-104331D02*
X-125748D01*
X-74390Y-79350D02*
X-60610D01*
X-52933D01*
X-82067Y-56713D02*
X-52933D01*
Y-79350D02*
Y-76102D01*
Y-72165D02*
Y-56713D01*
X-82067Y-76102D02*
Y-72165D01*
Y-79350D02*
X-74390D01*
X-82067Y-72165D02*
Y-56713D01*
X-52933Y-76102D02*
Y-72165D01*
X-82067Y-79350D02*
Y-76102D01*
X-111890Y-54350D02*
X-98110D01*
X-90433D01*
X-119567Y-31713D02*
X-90433D01*
Y-54350D02*
Y-51102D01*
Y-47165D02*
Y-31713D01*
X-119567Y-51102D02*
Y-47165D01*
Y-54350D02*
X-111890D01*
X-119567Y-47165D02*
Y-31713D01*
X-90433Y-51102D02*
Y-47165D01*
X-119567Y-54350D02*
Y-51102D01*
X-74390Y-104350D02*
X-60610D01*
X-52933D01*
X-82067Y-81713D02*
X-52933D01*
Y-104350D02*
Y-101102D01*
Y-97165D02*
Y-81713D01*
X-82067Y-101102D02*
Y-97165D01*
Y-104350D02*
X-74390D01*
X-82067Y-97165D02*
Y-81713D01*
X-52933Y-101102D02*
Y-97165D01*
X-82067Y-104350D02*
Y-101102D01*
X-36890Y-54350D02*
X-23110D01*
X-15433D01*
X-44567Y-31713D02*
X-15433D01*
Y-54350D02*
Y-51102D01*
Y-47165D02*
Y-31713D01*
X-44567Y-51102D02*
Y-47165D01*
Y-54350D02*
X-36890D01*
X-44567Y-47165D02*
Y-31713D01*
X-15433Y-51102D02*
Y-47165D01*
X-44567Y-54350D02*
Y-51102D01*
X-36890Y-104350D02*
X-23110D01*
X-15433D01*
X-44567Y-81713D02*
X-15433D01*
Y-104350D02*
Y-101102D01*
Y-97165D02*
Y-81713D01*
X-44567Y-101102D02*
Y-97165D01*
Y-104350D02*
X-36890D01*
X-44567Y-97165D02*
Y-81713D01*
X-15433Y-101102D02*
Y-97165D01*
X-44567Y-104350D02*
Y-101102D01*
X-111890Y-79350D02*
X-98110D01*
X-90433D01*
X-119567Y-56713D02*
X-90433D01*
Y-79350D02*
Y-76102D01*
Y-72165D02*
Y-56713D01*
X-119567Y-76102D02*
Y-72165D01*
Y-79350D02*
X-111890D01*
X-119567Y-72165D02*
Y-56713D01*
X-90433Y-76102D02*
Y-72165D01*
X-119567Y-79350D02*
Y-76102D01*
X-118350Y125500D02*
X-115750Y124300D01*
Y116700D02*
Y124300D01*
X-118350Y115500D02*
X-115750Y116700D01*
X-125250D02*
Y124300D01*
X-122650Y125500D01*
X-118350D01*
X-125250Y116700D02*
X-122650Y115500D01*
X-118350D02*
X-115750Y114300D01*
Y106700D02*
Y114300D01*
X-118350Y105500D02*
X-115750Y106700D01*
X-125250D02*
Y114300D01*
X-122650Y115500D01*
X-125250Y106700D02*
X-122650Y105500D01*
X-118350D02*
X-115750Y104300D01*
X-122650Y95500D02*
X-118350D01*
X-115750Y96700D02*
Y104300D01*
X-118350Y95500D02*
X-115750Y96700D01*
X-125250D02*
Y104300D01*
X-122650Y105500D01*
X-125250Y96700D02*
X-122650Y95500D01*
X-147886Y29169D02*
Y87831D01*
X-125248D01*
Y29169D02*
Y87831D01*
X-147886Y29169D02*
X-125248D01*
X-141350Y125500D02*
X-138750Y124300D01*
Y116700D02*
Y124300D01*
X-141350Y115500D02*
X-138750Y116700D01*
X-148250D02*
Y124300D01*
X-145650Y125500D01*
X-141350D01*
X-148250Y116700D02*
X-145650Y115500D01*
X-141350D02*
X-138750Y114300D01*
Y106700D02*
Y114300D01*
X-141350Y105500D02*
X-138750Y106700D01*
X-148250D02*
Y114300D01*
X-145650Y115500D01*
X-148250Y106700D02*
X-145650Y105500D01*
X-141350D02*
X-138750Y104300D01*
X-145650Y95500D02*
X-141350D01*
X-138750Y96700D02*
Y104300D01*
X-141350Y95500D02*
X-138750Y96700D01*
X-148250D02*
Y104300D01*
X-145650Y105500D01*
X-148250Y96700D02*
X-145650Y95500D01*
X-135000Y15984D02*
X-133031Y15000D01*
X-126969Y5000D02*
X-125000Y5984D01*
X-126969Y-15000D02*
X-125000Y-15984D01*
X-135000Y5984D02*
X-133031Y5000D01*
X-126969Y15000D02*
X-125000Y15984D01*
X-135000Y14016D02*
X-133031Y15000D01*
X-126969Y-15000D02*
X-125000Y-14016D01*
Y-24016D02*
Y-15984D01*
X-135000Y4016D02*
X-133031Y5000D01*
X-126969Y25000D02*
X-125000Y24016D01*
X-126969Y15000D02*
X-125000Y14016D01*
X-135000Y-24016D02*
Y-15984D01*
Y-5984D02*
X-133031Y-5000D01*
X-125000Y-4016D02*
Y4016D01*
Y15984D02*
Y24016D01*
X-135000Y-34016D02*
X-133031Y-35000D01*
X-126969Y-5000D02*
X-125000Y-4016D01*
X-135000Y15984D02*
Y24016D01*
X-125000Y-34016D02*
Y-25984D01*
X-135000Y-14016D02*
Y-5984D01*
Y24016D02*
X-133031Y25000D01*
X-135000Y-4016D02*
X-133031Y-5000D01*
X-126969Y5000D02*
X-125000Y4016D01*
X-135000Y-24016D02*
X-133031Y-25000D01*
X-135000Y-14016D02*
X-133031Y-15000D01*
X-135000Y-15984D02*
X-133031Y-15000D01*
X-125000Y5984D02*
Y14016D01*
X-133031Y-35000D02*
X-126969D01*
X-133031Y25000D02*
X-126969D01*
X-135000Y-25984D02*
X-133031Y-25000D01*
X-126969Y-5000D02*
X-125000Y-5984D01*
X-126969Y-25000D02*
X-125000Y-25984D01*
X-126969Y-25000D02*
X-125000Y-24016D01*
X-135000Y-4016D02*
Y4016D01*
X-125000Y-14016D02*
Y-5984D01*
X-135000Y5984D02*
Y14016D01*
Y-34016D02*
Y-25984D01*
X-126969Y-35000D02*
X-125000Y-34016D01*
X-150000Y15984D02*
X-148031Y15000D01*
X-141969Y5000D02*
X-140000Y5984D01*
X-141969Y-15000D02*
X-140000Y-15984D01*
X-150000Y5984D02*
X-148031Y5000D01*
X-141969Y15000D02*
X-140000Y15984D01*
X-150000Y14016D02*
X-148031Y15000D01*
X-141969Y-15000D02*
X-140000Y-14016D01*
Y-24016D02*
Y-15984D01*
X-150000Y4016D02*
X-148031Y5000D01*
X-141969Y25000D02*
X-140000Y24016D01*
X-141969Y15000D02*
X-140000Y14016D01*
X-150000Y-24016D02*
Y-15984D01*
Y-5984D02*
X-148031Y-5000D01*
X-140000Y-4016D02*
Y4016D01*
Y15984D02*
Y24016D01*
X-150000Y-34016D02*
X-148031Y-35000D01*
X-141969Y-5000D02*
X-140000Y-4016D01*
X-150000Y15984D02*
Y24016D01*
X-140000Y-34016D02*
Y-25984D01*
X-150000Y-14016D02*
Y-5984D01*
Y24016D02*
X-148031Y25000D01*
X-150000Y-4016D02*
X-148031Y-5000D01*
X-141969Y5000D02*
X-140000Y4016D01*
X-150000Y-24016D02*
X-148031Y-25000D01*
X-150000Y-14016D02*
X-148031Y-15000D01*
X-150000Y-15984D02*
X-148031Y-15000D01*
X-140000Y5984D02*
Y14016D01*
X-148031Y-35000D02*
X-141969D01*
X-148031Y25000D02*
X-141969D01*
X-150000Y-25984D02*
X-148031Y-25000D01*
X-141969Y-5000D02*
X-140000Y-5984D01*
X-141969Y-25000D02*
X-140000Y-25984D01*
X-141969Y-25000D02*
X-140000Y-24016D01*
X-150000Y-4016D02*
Y4016D01*
X-140000Y-14016D02*
Y-5984D01*
X-150000Y5984D02*
Y14016D01*
Y-34016D02*
Y-25984D01*
X-141969Y-35000D02*
X-140000Y-34016D01*
D18*
X-45500Y-100834D02*
Y-103500D01*
X-48166Y-100834D01*
X-48832D01*
X-49499Y-101501D01*
Y-102833D01*
X-48832Y-103500D01*
X-45500Y-99501D02*
Y-98168D01*
Y-98835D01*
X-49499D01*
X-48832Y-99501D01*
X-45500Y-78500D02*
Y-77167D01*
Y-77834D01*
X-49499D01*
X-48832Y-78500D01*
X-46166Y-75168D02*
X-45500Y-74501D01*
Y-73168D01*
X-46166Y-72502D01*
X-48832D01*
X-49499Y-73168D01*
Y-74501D01*
X-48832Y-75168D01*
X-48166D01*
X-47499Y-74501D01*
Y-72502D01*
X-49499Y-50834D02*
X-48832Y-52167D01*
X-47499Y-53500D01*
X-46166D01*
X-45500Y-52834D01*
Y-51501D01*
X-46166Y-50834D01*
X-46833D01*
X-47499Y-51501D01*
Y-53500D01*
X-48832Y-49501D02*
X-46166Y-46836D01*
Y-49501D02*
X-48832Y-46836D01*
X-47499Y-49501D02*
Y-46836D01*
X-46166Y-48168D02*
X-48832D01*
X-45500Y-28500D02*
Y-27167D01*
Y-27834D01*
X-49499D01*
X-48832Y-28500D01*
X-45500Y-25168D02*
Y-23835D01*
Y-24501D01*
X-49499D01*
X-48832Y-25168D01*
X-45500Y-3500D02*
Y-2167D01*
Y-2833D01*
X-49499D01*
X-48832Y-3500D01*
Y-168D02*
X-49499Y499D01*
Y1832D01*
X-48832Y2498D01*
X-46166D01*
X-45500Y1832D01*
Y499D01*
X-46166Y-168D01*
X-48832D01*
X-45500Y24166D02*
Y21500D01*
X-48166Y24166D01*
X-48832D01*
X-49499Y23499D01*
Y22166D01*
X-48832Y21500D01*
X-45500Y28164D02*
Y25499D01*
X-48166Y28164D01*
X-48832D01*
X-49499Y27498D01*
Y26165D01*
X-48832Y25499D01*
Y29497D02*
X-46166Y32163D01*
Y29497D02*
X-48832Y32163D01*
X-47499Y29497D02*
Y32163D01*
X-46166Y30830D02*
X-48832D01*
X-45500Y46500D02*
Y47833D01*
Y47166D01*
X-49499D01*
X-48832Y46500D01*
X-49499Y49832D02*
Y52498D01*
X-48832D01*
X-46166Y49832D01*
X-45500D01*
X-48832Y53831D02*
X-46166Y56497D01*
Y53831D02*
X-48832Y56497D01*
X-47499Y53831D02*
Y56497D01*
X-46166Y55164D02*
X-48832D01*
X-45500Y71500D02*
Y72833D01*
Y72166D01*
X-49499D01*
X-48832Y71500D01*
X-45500Y76832D02*
X-49499D01*
X-47499Y74832D01*
Y77498D01*
X-45433Y99166D02*
Y96500D01*
X-48099Y99166D01*
X-48765D01*
X-49432Y98499D01*
Y97166D01*
X-48765Y96500D01*
X-83832D02*
X-84499Y97166D01*
Y98499D01*
X-83832Y99166D01*
X-83166D01*
X-82499Y98499D01*
Y97833D01*
Y98499D01*
X-81833Y99166D01*
X-81166D01*
X-80500Y98499D01*
Y97166D01*
X-81166Y96500D01*
X-83000Y73499D02*
X-86999D01*
X-84999Y71500D01*
Y74166D01*
X-86332Y75499D02*
X-83666Y78164D01*
Y75499D02*
X-86332Y78164D01*
X-84999Y75499D02*
Y78164D01*
X-83666Y76832D02*
X-86332D01*
X-83000Y46500D02*
Y47833D01*
Y47166D01*
X-86999D01*
X-86332Y46500D01*
Y49832D02*
X-86999Y50499D01*
Y51832D01*
X-86332Y52498D01*
X-85666D01*
X-84999Y51832D01*
X-84333Y52498D01*
X-83666D01*
X-83000Y51832D01*
Y50499D01*
X-83666Y49832D01*
X-84333D01*
X-84999Y50499D01*
X-85666Y49832D01*
X-86332D01*
X-84999Y50499D02*
Y51832D01*
X-83000Y24166D02*
Y21500D01*
X-85666Y24166D01*
X-86332D01*
X-86999Y23499D01*
Y22166D01*
X-86332Y21500D01*
Y25499D02*
X-86999Y26165D01*
Y27498D01*
X-86332Y28164D01*
X-85666D01*
X-84999Y27498D01*
Y26832D01*
Y27498D01*
X-84333Y28164D01*
X-83666D01*
X-83000Y27498D01*
Y26165D01*
X-83666Y25499D01*
Y-3500D02*
X-83000Y-2833D01*
Y-1501D01*
X-83666Y-834D01*
X-86332D01*
X-86999Y-1501D01*
Y-2833D01*
X-86332Y-3500D01*
X-85666D01*
X-84999Y-2833D01*
Y-834D01*
X-86332Y-28500D02*
X-86999Y-27834D01*
Y-26501D01*
X-86332Y-25834D01*
X-85666D01*
X-84999Y-26501D01*
X-84333Y-25834D01*
X-83666D01*
X-83000Y-26501D01*
Y-27834D01*
X-83666Y-28500D01*
X-84333D01*
X-84999Y-27834D01*
X-85666Y-28500D01*
X-86332D01*
X-84999Y-27834D02*
Y-26501D01*
X-83000Y-53500D02*
Y-52167D01*
Y-52834D01*
X-86999D01*
X-86332Y-53500D01*
X-83000Y-47502D02*
Y-50168D01*
X-85666Y-47502D01*
X-86332D01*
X-86999Y-48168D01*
Y-49501D01*
X-86332Y-50168D01*
X-83000Y-78500D02*
Y-77167D01*
Y-77834D01*
X-86999D01*
X-86332Y-78500D01*
X-86999Y-72502D02*
X-86332Y-73835D01*
X-84999Y-75168D01*
X-83666D01*
X-83000Y-74501D01*
Y-73168D01*
X-83666Y-72502D01*
X-84333D01*
X-84999Y-73168D01*
Y-75168D01*
X-83000Y-100834D02*
Y-103500D01*
X-85666Y-100834D01*
X-86332D01*
X-86999Y-101501D01*
Y-102833D01*
X-86332Y-103500D01*
Y-99501D02*
X-86999Y-98835D01*
Y-97502D01*
X-86332Y-96836D01*
X-83666D01*
X-83000Y-97502D01*
Y-98835D01*
X-83666Y-99501D01*
X-86332D01*
X-120500Y87000D02*
Y88333D01*
Y87666D01*
X-124499D01*
X-123832Y87000D01*
X-124499Y92998D02*
Y90332D01*
X-122499D01*
X-123166Y91665D01*
Y92332D01*
X-122499Y92998D01*
X-121167D01*
X-120500Y92332D01*
Y90999D01*
X-121167Y90332D01*
X-120500Y49166D02*
Y46500D01*
X-123166Y49166D01*
X-123832D01*
X-124499Y48499D01*
Y47166D01*
X-123832Y46500D01*
X-124499Y50499D02*
Y53164D01*
X-123832D01*
X-121167Y50499D01*
X-120500D01*
X-123832Y54497D02*
X-121167Y57163D01*
Y54497D02*
X-123832Y57163D01*
X-122499Y54497D02*
Y57163D01*
X-121167Y55830D02*
X-123832D01*
X-120500Y24166D02*
Y21500D01*
X-123166Y24166D01*
X-123832D01*
X-124499Y23499D01*
Y22166D01*
X-123832Y21500D01*
X-120500Y27498D02*
X-124499D01*
X-122499Y25499D01*
Y28164D01*
X-120500Y-834D02*
Y-3500D01*
X-123166Y-834D01*
X-123832D01*
X-124499Y-1501D01*
Y-2833D01*
X-123832Y-3500D01*
X-124499Y3164D02*
Y499D01*
X-122499D01*
X-123166Y1832D01*
Y2498D01*
X-122499Y3164D01*
X-121167D01*
X-120500Y2498D01*
Y1165D01*
X-121167Y499D01*
X-124499Y-28500D02*
Y-25834D01*
X-123832D01*
X-121167Y-28500D01*
X-120500D01*
X-124499Y-47834D02*
Y-50500D01*
X-122499D01*
X-123166Y-49167D01*
Y-48501D01*
X-122499Y-47834D01*
X-121167D01*
X-120500Y-48501D01*
Y-49834D01*
X-121167Y-50500D01*
X-123832Y-46501D02*
X-121167Y-43835D01*
Y-46501D02*
X-123832Y-43835D01*
X-122499Y-46501D02*
Y-43835D01*
X-121167Y-45168D02*
X-123832D01*
X-120500Y-78500D02*
Y-77167D01*
Y-77834D01*
X-124499D01*
X-123832Y-78500D01*
Y-75168D02*
X-124499Y-74501D01*
Y-73168D01*
X-123832Y-72502D01*
X-123166D01*
X-122499Y-73168D01*
Y-73835D01*
Y-73168D01*
X-121833Y-72502D01*
X-121167D01*
X-120500Y-73168D01*
Y-74501D01*
X-121167Y-75168D01*
X-123832Y-71169D02*
X-121167Y-68503D01*
Y-71169D02*
X-123832Y-68503D01*
X-122499Y-71169D02*
Y-68503D01*
X-121167Y-69836D02*
X-123832D01*
X-120500Y-100834D02*
Y-103500D01*
X-123166Y-100834D01*
X-123832D01*
X-124499Y-101501D01*
Y-102833D01*
X-123832Y-103500D01*
X-124499Y-96836D02*
X-123832Y-98168D01*
X-122499Y-99501D01*
X-121167D01*
X-120500Y-98835D01*
Y-97502D01*
X-121167Y-96836D01*
X-121833D01*
X-122499Y-97502D01*
Y-99501D01*
X-123832Y-95503D02*
X-121167Y-92837D01*
Y-95503D02*
X-123832Y-92837D01*
X-122499Y-95503D02*
Y-92837D01*
X-121167Y-94170D02*
X-123832D01*
X-110834Y111832D02*
X-111501Y112499D01*
X-112833D01*
X-113500Y111832D01*
Y111166D01*
X-112833Y110499D01*
X-111501D01*
X-110834Y109833D01*
Y109167D01*
X-111501Y108500D01*
X-112833D01*
X-113500Y109167D01*
X-106835Y111832D02*
X-107502Y112499D01*
X-108835D01*
X-109501Y111832D01*
Y109167D01*
X-108835Y108500D01*
X-107502D01*
X-106835Y109167D01*
X-105503Y112499D02*
Y108500D01*
X-102837D01*
X-110834Y121832D02*
X-111501Y122499D01*
X-112833D01*
X-113500Y121832D01*
Y121166D01*
X-112833Y120499D01*
X-111501D01*
X-110834Y119833D01*
Y119167D01*
X-111501Y118500D01*
X-112833D01*
X-113500Y119167D01*
X-109501Y122499D02*
Y118500D01*
X-107502D01*
X-106835Y119167D01*
Y121832D01*
X-107502Y122499D01*
X-109501D01*
X-105503Y118500D02*
Y121166D01*
X-104170Y122499D01*
X-102837Y121166D01*
Y118500D01*
Y120499D01*
X-105503D01*
X-110834Y100832D02*
X-111501Y101499D01*
X-112833D01*
X-113500Y100832D01*
Y98166D01*
X-112833Y97500D01*
X-111501D01*
X-110834Y98166D01*
Y99499D01*
X-112167D01*
X-109501Y97500D02*
Y101499D01*
X-106835Y97500D01*
Y101499D01*
X-105503D02*
Y97500D01*
X-103503D01*
X-102837Y98166D01*
Y100832D01*
X-103503Y101499D01*
X-105503D01*
X-152832Y33166D02*
X-153499Y32499D01*
Y31166D01*
X-152832Y30500D01*
X-150166D01*
X-149500Y31166D01*
Y32499D01*
X-150166Y33166D01*
X-151499D01*
Y31833D01*
X-149500Y34499D02*
X-153499D01*
X-149500Y37165D01*
X-153499D01*
Y38497D02*
X-149500D01*
Y40497D01*
X-150166Y41163D01*
X-152832D01*
X-153499Y40497D01*
Y38497D01*
X-152832Y-100834D02*
X-153499Y-101501D01*
Y-102833D01*
X-152832Y-103500D01*
X-150166D01*
X-149500Y-102833D01*
Y-101501D01*
X-150166Y-100834D01*
X-151499D01*
Y-102167D01*
X-149500Y-99501D02*
X-153499D01*
X-149500Y-96836D01*
X-153499D01*
Y-95503D02*
X-149500D01*
Y-93503D01*
X-150166Y-92837D01*
X-152832D01*
X-153499Y-93503D01*
Y-95503D01*
X-132834Y-39668D02*
X-133501Y-39001D01*
X-134834D01*
X-135500Y-39668D01*
Y-40334D01*
X-134834Y-41001D01*
X-133501D01*
X-132834Y-41667D01*
Y-42334D01*
X-133501Y-43000D01*
X-134834D01*
X-135500Y-42334D01*
X-131501Y-43000D02*
Y-39001D01*
X-129502D01*
X-128835Y-39668D01*
Y-41001D01*
X-129502Y-41667D01*
X-131501D01*
X-127503Y-39001D02*
X-126170D01*
X-126836D01*
Y-43000D01*
X-127503D01*
X-126170D01*
X-124170Y-39668D02*
X-123504Y-39001D01*
X-122171D01*
X-121504Y-39668D01*
Y-42334D01*
X-122171Y-43000D01*
X-123504D01*
X-124170Y-42334D01*
Y-39668D01*
X-149834D02*
X-150501Y-39001D01*
X-151833D01*
X-152500Y-39668D01*
Y-40334D01*
X-151833Y-41001D01*
X-150501D01*
X-149834Y-41667D01*
Y-42334D01*
X-150501Y-43000D01*
X-151833D01*
X-152500Y-42334D01*
X-148501Y-43000D02*
Y-39001D01*
X-146502D01*
X-145835Y-39668D01*
Y-41001D01*
X-146502Y-41667D01*
X-148501D01*
X-144503Y-39001D02*
X-143170D01*
X-143836D01*
Y-43000D01*
X-144503D01*
X-143170D01*
X-141170D02*
X-139837D01*
X-140504D01*
Y-39001D01*
X-141170Y-39668D01*
X-133834Y100832D02*
X-134501Y101499D01*
X-135834D01*
X-136500Y100832D01*
Y98166D01*
X-135834Y97500D01*
X-134501D01*
X-133834Y98166D01*
Y99499D01*
X-135167D01*
X-132501Y97500D02*
Y101499D01*
X-129835Y97500D01*
Y101499D01*
X-128503D02*
Y97500D01*
X-126503D01*
X-125837Y98166D01*
Y100832D01*
X-126503Y101499D01*
X-128503D01*
X-136500Y122499D02*
X-133834D01*
X-135167D01*
Y118500D01*
X-132501Y122499D02*
X-129835Y118500D01*
Y122499D02*
X-132501Y118500D01*
X-136500Y108500D02*
Y112499D01*
X-134501D01*
X-133834Y111832D01*
Y110499D01*
X-134501Y109833D01*
X-136500D01*
X-135167D02*
X-133834Y108500D01*
X-132501Y112499D02*
X-129835Y108500D01*
Y112499D02*
X-132501Y108500D01*
X-151500Y6500D02*
X-155499D01*
X-154166Y7833D01*
X-155499Y9166D01*
X-151500D01*
X-155499Y10499D02*
Y11832D01*
Y11165D01*
X-151500D01*
Y10499D01*
Y11832D01*
Y16500D02*
X-155499D01*
X-154166Y17833D01*
X-155499Y19166D01*
X-151500D01*
X-155499Y22498D02*
Y21165D01*
X-154832Y20499D01*
X-152166D01*
X-151500Y21165D01*
Y22498D01*
X-152166Y23165D01*
X-154832D01*
X-155499Y22498D01*
X-154832Y-834D02*
X-155499Y-1501D01*
Y-2833D01*
X-154832Y-3500D01*
X-152166D01*
X-151500Y-2833D01*
Y-1501D01*
X-152166Y-834D01*
X-155499Y499D02*
X-151500D01*
X-152833D01*
X-155499Y3164D01*
X-153499Y1165D01*
X-151500Y3164D01*
X-154832Y-10834D02*
X-155499Y-11501D01*
Y-12833D01*
X-154832Y-13500D01*
X-154166D01*
X-153499Y-12833D01*
Y-11501D01*
X-152833Y-10834D01*
X-152166D01*
X-151500Y-11501D01*
Y-12833D01*
X-152166Y-13500D01*
X-154832Y-9501D02*
X-155499Y-8835D01*
Y-7502D01*
X-154832Y-6836D01*
X-152166D01*
X-151500Y-7502D01*
Y-8835D01*
X-152166Y-9501D01*
X-154832D01*
Y-20834D02*
X-155499Y-21501D01*
Y-22833D01*
X-154832Y-23500D01*
X-154166D01*
X-153499Y-22833D01*
Y-21501D01*
X-152833Y-20834D01*
X-152166D01*
X-151500Y-21501D01*
Y-22833D01*
X-152166Y-23500D01*
X-151500Y-19501D02*
Y-18168D01*
Y-18835D01*
X-155499D01*
X-154832Y-19501D01*
X-149500Y-84834D02*
Y-87500D01*
X-152166Y-84834D01*
X-152832D01*
X-153499Y-85501D01*
Y-86834D01*
X-152832Y-87500D01*
X-153499Y-80835D02*
X-152832Y-82168D01*
X-151499Y-83501D01*
X-150166D01*
X-149500Y-82835D01*
Y-81502D01*
X-150166Y-80835D01*
X-150833D01*
X-151499Y-81502D01*
Y-83501D01*
X-149500Y-75500D02*
Y-74167D01*
Y-74834D01*
X-153499D01*
X-152832Y-75500D01*
Y-72168D02*
X-153499Y-71501D01*
Y-70168D01*
X-152832Y-69502D01*
X-152166D01*
X-151499Y-70168D01*
Y-70835D01*
Y-70168D01*
X-150833Y-69502D01*
X-150166D01*
X-149500Y-70168D01*
Y-71501D01*
X-150166Y-72168D01*
X-153499Y-60834D02*
X-152832Y-62167D01*
X-151499Y-63500D01*
X-150166D01*
X-149500Y-62834D01*
Y-61501D01*
X-150166Y-60834D01*
X-150833D01*
X-151499Y-61501D01*
Y-63500D01*
X-153499Y-48834D02*
Y-51500D01*
X-151499D01*
X-152166Y-50167D01*
Y-49501D01*
X-151499Y-48834D01*
X-150166D01*
X-149500Y-49501D01*
Y-50834D01*
X-150166Y-51500D01*
X-149500Y49166D02*
Y46500D01*
X-152166Y49166D01*
X-152832D01*
X-153499Y48499D01*
Y47166D01*
X-152832Y46500D01*
X-149500Y53164D02*
Y50499D01*
X-152166Y53164D01*
X-152832D01*
X-153499Y52498D01*
Y51165D01*
X-152832Y50499D01*
X-149500Y61166D02*
Y58500D01*
X-152166Y61166D01*
X-152832D01*
X-153499Y60499D01*
Y59166D01*
X-152832Y58500D01*
X-153499Y62499D02*
Y65165D01*
X-152832D01*
X-150166Y62499D01*
X-149500D01*
Y70500D02*
Y71833D01*
Y71166D01*
X-153499D01*
X-152832Y70500D01*
X-153499Y73832D02*
Y76498D01*
X-152832D01*
X-150166Y73832D01*
X-149500D01*
Y84499D02*
X-153499D01*
X-151499Y82500D01*
Y85166D01*
D19*
X-14842Y54803D02*
D03*
X-52342Y79803D02*
D03*
X-49843Y104803D02*
D03*
X-14842D02*
D03*
Y79803D02*
D03*
X-89842D02*
D03*
X-52342Y54803D02*
D03*
Y29803D02*
D03*
X-89842D02*
D03*
Y54803D02*
D03*
Y4803D02*
D03*
X-14842Y29803D02*
D03*
Y-70197D02*
D03*
X-52342Y-20197D02*
D03*
X-14842Y4803D02*
D03*
X-89842Y-95197D02*
D03*
Y-20197D02*
D03*
X-52342Y4803D02*
D03*
Y-45197D02*
D03*
X-14842Y-20197D02*
D03*
X-52342Y-70197D02*
D03*
X-89842Y-45197D02*
D03*
X-52342Y-95197D02*
D03*
X-14842Y-45197D02*
D03*
Y-95197D02*
D03*
X-89842Y-70197D02*
D03*
D20*
X-124321Y-55512D02*
D03*
X-123821Y77988D02*
D03*
D21*
X-115172Y122114D02*
D03*
X-138172D02*
D03*
D22*
X-124350Y20787D02*
D03*
X-139350D02*
D03*
M02*
