M48
;Layer_Color=9474304
;FILE_FORMAT=2:5
INCH,LZ
;TYPE=PLATED
T1F00S00C0.03937
T2F00S00C0.04528
T3F00S00C0.10827
%
T01
X-0135Y-0094685
Y-0084842
Y-0075
X-0109921Y-0095
X-0100079
X-0072421
X-0062579
X-0034921
X-0025079
X-0005
Y-0085
Y-0075
X0005
Y-0085
Y-0095
Y-0065
Y-0055
Y-0045
Y-0035
Y-0025
Y-0015
Y-0005
Y0005
Y0015
Y0025
Y0035
Y0045
Y0055
Y0065
Y0075
X-0005
Y0065
Y0055
Y0045
Y0035
Y0025
Y0015
Y0005
Y-0005
Y-0015
Y-0025
Y-0035
Y-0045
Y-0055
Y-0065
X-0025079Y-007
X-0034921
Y-0045
X-0025079
Y-002
X-0034921
Y0005
X-0025079
Y003
X-0034921
Y0055
X-0025079
Y008
X-0034921
X-0062579
X-0072421
Y0055
X-0062579
Y003
X-0072421
Y0005
X-0062579
Y-002
X-0072421
Y-0045
X-0062579
Y-007
X-0072421
X-0100079
X-0109921
Y-0045
X-0100079
Y-002
X-0109921
Y0005
X-0100079
Y003
X-0109921
Y0055
X-0100079
Y008
X-0109921
X-01345Y0078185
Y0068343
Y00585
Y0048658
Y0038815
X-0135Y-0055315
Y-0065158
X-01435Y01005
Y01105
Y01205
X-01205
Y01105
Y01005
X-0069921Y0105
X-0060079
X-0034921
X-0025079
X-0005Y0095
X0005
Y0085
X-0005
T02
X-013Y-003
Y-002
Y-001
Y0
Y001
Y002
X-0145
Y001
Y0
Y-001
Y-002
Y-003
T03
X-0192913Y-0114173
X-0090551
X0
X-0192913Y0114173
X-0090551
X0
M30
